/vscmnt/brussel_pixiu_data/_data_brussel/112/vsc11236/PredSimResults/SUBJ07opt3D/trackIG/worker_15.mot
version=1
nRows=5
nColumns=50
inDegrees=yes
endheader
                time	         pelvis_tilt	         pelvis_list	     pelvis_rotation	           pelvis_tx	           pelvis_ty	           pelvis_tz	       hip_flexion_r	     hip_adduction_r	      hip_rotation_r	        knee_angle_r	       ankle_angle_r	         mtp_angle_r	       hip_flexion_l	     hip_adduction_l	      hip_rotation_l	        knee_angle_l	       ankle_angle_l	         mtp_angle_l	    lumbar_extension	      lumbar_bending	     lumbar_rotation	 ercspn_r/activation	 intobl_r/activation	 extobl_r/activation	    abd_r/activation	    add_r/activation	hamstrings_r/activation	bifemsh_r/activation	glut_max_r/activation	iliopsoas_r/activation	rect_fem_r/activation	  vasti_r/activation	gastroc_r/activation	 soleus_r/activation	tib_ant_r/activation	 ercspn_l/activation	 intobl_l/activation	 extobl_l/activation	    abd_l/activation	    add_l/activation	hamstrings_l/activation	bifemsh_l/activation	glut_max_l/activation	iliopsoas_l/activation	rect_fem_l/activation	  vasti_l/activation	gastroc_l/activation	 soleus_l/activation	tib_ant_l/activation	
          0.35306141	         -9.39132573	          1.25195424	         -1.99114226	          0.70612283	          0.85755439	          0.00009220	        -11.13621659	          0.61282556	         -1.89190193	        -21.27866125	        -17.19820880	         31.02154852	         34.97666466	          2.88102774	          3.87363886	        -24.30756693	          5.98447383	          0.43514021	         -7.30745049	         -2.77657937	          6.40991874	          0.11020365	          0.01000001	          0.00999999	          0.01887598	          0.13199339	          0.02796857	          0.06336470	          0.01560598	          0.87398648	          0.23271378	          0.01640845	          0.10826564	          0.07960251	          0.00999999	          0.18547620	          0.01583794	          0.01000030	          0.06496950	          0.16430759	          0.43057127	          0.30682610	          0.09043228	          0.01639751	          0.00999999	          0.00999999	          0.01117686	          0.00999999	          0.54242843	
          0.36012264	         -9.34423183	          1.11118375	         -1.93757451	          0.72185963	          0.85443982	         -0.00001297	        -10.98954902	          0.69849619	         -2.08982639	        -23.16627702	        -18.20107013	         30.12035867	         34.59423183	          3.01292362	          4.19494006	        -25.18748528	          5.73006105	          0.42346686	         -7.14837744	         -2.87068372	          6.33403002	          0.14251006	          0.01117685	          0.01000000	          0.01688843	          0.11809511	          0.03157007	          0.05669279	          0.01396274	          0.80764274	          0.20821014	          0.01468072	          0.09686578	          0.07122075	          0.00999999	          0.16704916	          0.01417028	          0.01117686	          0.05812852	          0.19170854	          0.38523416	          0.27451877	          0.14439643	          0.01467093	          0.01000002	          0.01000000	          0.00999999	          0.00999999	          0.48531330	
          0.36718387	         -9.29244003	          0.99579839	         -1.88135600	          0.73760831	          0.85109029	         -0.00012250	        -10.64267082	          0.74899371	         -2.22973610	        -25.37619139	        -19.28704588	         29.05323018	         34.24611312	          3.16708432	          4.57735736	        -26.74416649	          6.09111881	          0.38730179	         -6.98446373	         -2.99307297	          6.23115567	          0.19613493	          0.00999999	          0.00999999	          0.01511016	          0.10566026	          0.02824630	          0.10835282	          0.01249253	          0.72260180	          0.18628660	          0.01313491	          0.08666627	          0.06372154	          0.00999999	          0.14945969	          0.01267822	          0.01000001	          0.13215721	          0.21011773	          0.34467084	          0.24561325	          0.20829655	          0.01312615	          0.01000003	          0.01065673	          0.01117689	          0.09951457	          0.43421211	
          0.37424510	         -9.23741869	          0.90534856	         -1.80983859	          0.75326733	          0.84764172	         -0.00023600	        -10.09143969	          0.77328467	         -2.31730258	        -27.87629790	        -20.46454871	         27.70231673	         33.94550814	          3.31677315	          4.90911553	        -28.53573903	          7.28346378	          0.63047292	         -6.82870694	         -3.14113605	          6.09227927	          0.26055872	          0.00999999	          0.01000020	          0.01351914	          0.09453474	          0.02588906	          0.09694382	          0.01117713	          0.64651527	          0.16667151	          0.01175186	          0.07754073	          0.05701197	          0.06321524	          0.13372230	          0.01134326	          0.01000000	          0.25286580	          0.21238219	          0.30837864	          0.21975135	          0.22906184	          0.01174403	          0.00999999	          0.11693154	          0.01000002	          0.11443166	          0.38849165	
          0.38130633	         -9.18244329	          0.84504661	         -1.71390209	          0.76870535	          0.84432583	         -0.00035121	         -9.32952476	          0.77732501	         -2.35335931	        -30.64464563	        -21.60076836	         25.85011041	         33.70147676	          3.46523570	          5.09852268	        -30.50548706	          9.22931731	          1.19124324	         -6.69671062	         -3.31801691	          5.91058055	          0.33352829	          0.04006375	          0.01000000	          0.01332153	          0.08458068	          0.02316307	          0.08673612	          0.01000024	          0.57844029	          0.14912180	          0.01051445	          0.06937606	          0.05100888	          0.16345889	          0.11964198	          0.01014887	          0.01000000	          0.31962700	          0.22443287	          0.27590783	          0.19661258	          0.23027773	          0.01050744	          0.01000000	          0.20836762	          0.01117688	          0.15248893	          0.34758532	
